/* XPM */
static char * breakpoint_xpm[] = {
"16 16 104 2",
"  	c None",
". 	c #CE0000",
"+ 	c #CB0000",
"@ 	c #D00E0E",
"# 	c #E96363",
"$ 	c #F38C8C",
"% 	c #F59898",
"& 	c #EE7878",
"* 	c #DD3939",
"= 	c #CD0000",
"- 	c #DB2D2D",
"; 	c #F8A1A1",
"> 	c #F49A9A",
", 	c #F08888",
"' 	c #EE8181",
") 	c #F18A8A",
"! 	c #F7A2A2",
"~ 	c #EE6F6F",
"{ 	c #CD0505",
"] 	c #CF0F0F",
"^ 	c #F79A9A",
"/ 	c #EE7C7C",
"( 	c #EB6E6E",
"_ 	c #EB6D6D",
": 	c #EB6C6C",
"< 	c #EB6A6A",
"[ 	c #EB6767",
"} 	c #F49191",
"| 	c #E75454",
"1 	c #EA5D5D",
"2 	c #F28686",
"3 	c #EA6262",
"4 	c #EB6363",
"5 	c #EB6464",
"6 	c #EB6262",
"7 	c #EB5F5F",
"8 	c #EA5C5C",
"9 	c #EA5F5F",
"0 	c #F89393",
"a 	c #D20E0E",
"b 	c #F27979",
"c 	c #EA5757",
"d 	c #E73F3F",
"e 	c #E84545",
"f 	c #EB5757",
"g 	c #EC5858",
"h 	c #EC5656",
"i 	c #EB5353",
"j 	c #E94F4F",
"k 	c #F48383",
"l 	c #DA2B2B",
"m 	c #CD0101",
"n 	c #F57676",
"o 	c #E42525",
"p 	c #E31C1C",
"q 	c #E51E1E",
"r 	c #E72121",
"s 	c #E92E2E",
"t 	c #EA3B3B",
"u 	c #EA4242",
"v 	c #E83B3B",
"w 	c #F16868",
"x 	c #E03A3A",
"y 	c #CA0000",
"z 	c #EF6161",
"A 	c #E93939",
"B 	c #E51D1D",
"C 	c #E72020",
"D 	c #E92222",
"E 	c #EA2323",
"F 	c #E82121",
"G 	c #E61F1F",
"H 	c #F36969",
"I 	c #D81F1F",
"J 	c #E13A3A",
"K 	c #F16464",
"L 	c #E61E1E",
"M 	c #EB2424",
"N 	c #ED2626",
"O 	c #EC2525",
"P 	c #EB3737",
"Q 	c #F47171",
"R 	c #CE0707",
"S 	c #CE0303",
"T 	c #F06565",
"U 	c #F05454",
"V 	c #EA2424",
"W 	c #EB2525",
"X 	c #EE2727",
"Y 	c #EC2626",
"Z 	c #EC3535",
"` 	c #F57171",
" .	c #DA2727",
"..	c #D10C0C",
"+.	c #ED5959",
"@.	c #F25A5A",
"#.	c #F25353",
"$.	c #F36363",
"%.	c #F57474",
"&.	c #CD0202",
"*.	c #D51919",
"=.	c #DF3636",
"-.	c #E34242",
";.	c #D10A0A",
"                                ",
"                                ",
"              . +               ",
"          @ # $ % & * =         ",
"        - ; > , ' ) ! ~ {       ",
"      ] ^ / ( _ : < [ } |       ",
"      1 2 3 4 5 6 7 8 9 0 a     ",
"    = b c d e f g h i j k l     ",
"    m n o p q r s t u v w x     ",
"    y z A B C D E E F G H I     ",
"      J K L F M N O E P Q R     ",
"      S T U V W X Y Z `  .      ",
"        ..+.` @.#.$.%.-         ",
"          &.*.=.-. .;.          ",
"                                ",
"                                "};
