/* XPM */
static char * cost_xpm[] = {
"16 16 20 1",
" 	c None",
".	c #996666",
"+	c #9933CC",
"@	c #663366",
"#	c #996699",
"$	c #666699",
"%	c #663399",
"&	c #993366",
"*	c #CC6699",
"=	c #993399",
"-	c #333366",
";	c #777777",
">	c #9966CC",
",	c #000033",
"'	c #333399",
")	c #330066",
"!	c #333333",
"~	c #003333",
"{	c #424242",
"]	c #292929",
"  .+@#     @$#  ",
"  @+%#    #%+#  ",
"  #%%$&.*#%%+=. ",
"   #-+++++%-%@  ",
"    ;%+%@>+$#   ",
"     ,--%%-#    ",
"     ,--'-)#    ",
"    #@!----$    ",
"   #%%#$$$$>#   ",
"  >+%%>$%%%++$  ",
" #+-%>#----%+$% ",
"#++-%+#@-@%@++-#",
"#%-->+%@~-@-%+%-",
"  {%+>%@~--!%>>@",
"   #+#%-]--!@## ",
"     #@-   #@%  "};
