/* XPM */
static char * delete_xpm[] = {
"16 16 19 1",
" 	c None",
".	c #3465A4",
"+	c #C0D3E8",
"@	c #BBD1E7",
"#	c #BCD1E7",
"$	c #B7CEE6",
"%	c #B6CDE6",
"&	c #B5CCE6",
"*	c #B6CCE6",
"=	c #B4CCE5",
"-	c #95B7DB",
";	c #94B6DB",
">	c #92B4DA",
",	c #90B3DA",
"'	c #86ADD9",
")	c #83AAD8",
"!	c #7FA8D7",
"~	c #7DA6D7",
"{	c #9FBEE0",
"                ",
"                ",
"                ",
"                ",
"                ",
"                ",
"  ............  ",
"  .+@#$$$$%&*.  ",
"  .=-;>,')!~{.  ",
"  ............  ",
"                ",
"                ",
"                ",
"                ",
"                ",
"                "};
