/* XPM */
static char * ellipsis_xpm[] = {
"11 11 3 1",
" 	c None",
".	c #848284",
"+	c #000000",
"           ",
"           ",
"           ",
"           ",
" .   .   . ",
".+. .+. .+.",
" .   .   . ",
"           ",
"           ",
"           ",
"           "};
