/* XPM */
static char * filter_xpm[] = {
"16 16 50 1",
" 	c None",
".	c #000000",
"+	c #FFFFFF",
"@	c #F6F6F6",
"#	c #F5F5F5",
"$	c #F3F3F3",
"%	c #F1F1F1",
"&	c #EFEFEF",
"*	c #EDEDED",
"=	c #ECECEC",
"-	c #EBEBEB",
";	c #E9E9E9",
">	c #E8E8E8",
",	c #E7E7E7",
"'	c #E6E6E6",
")	c #E3E3E3",
"!	c #E2E2E2",
"~	c #E0E0E0",
"{	c #DFDFDF",
"]	c #DDDDDD",
"^	c #DBDBDB",
"/	c #DADADA",
"(	c #D9D9D9",
"_	c #D8D8D8",
":	c #D7D7D7",
"<	c #D6D6D6",
"[	c #D5D5D5",
"}	c #D4D4D4",
"|	c #D3D3D3",
"1	c #D2D2D2",
"2	c #D1D1D1",
"3	c #CFCFCF",
"4	c #CDCDCD",
"5	c #CCCCCC",
"6	c #CBCBCB",
"7	c #C8C8C8",
"8	c #C6C6C6",
"9	c #C2C2C2",
"0	c #C1C1C1",
"a	c #BCBCBC",
"b	c #BBBBBB",
"c	c #AFAFAF",
"d	c #ACACAC",
"e	c #ABABAB",
"f	c #A9A9A9",
"g	c #A6A6A6",
"h	c #A5A5A5",
"i	c #A4A4A4",
"j	c #A2A2A2",
"k	c #898989",
"                ",
"                ",
"kkkkkkkkkkkkkkkk",
"ka2<^{](}3680ack",
"ke>*$@#%-'{(|4jk",
"7kd;*&&=>)]:2jk7",
" 7kd,;>'){/}ik7 ",
"  7ke!!~]/[ik7  ",
"   7kf^/_}hk7   ",
"    7kg}1ik7    ",
"     9k45k9     ",
"     [k55k[     ",
"     [kbbk[     ",
"     [kkkk[     ",
"                ",
"                "};
