/* XPM */
static char * font_xpm[] = {
"16 16 103 2",
"  	c None",
". 	c #8B8D88",
"+ 	c #888A85",
"@ 	c #F7F7F6",
"# 	c #FEFEFE",
"$ 	c #F4F5F4",
"% 	c #FFFFFF",
"& 	c #A2BAD7",
"* 	c #FDFDFD",
"= 	c #A1B9D6",
"- 	c #FCFCFB",
"; 	c #A1B9D5",
"> 	c #F1F4F6",
", 	c #90B2D8",
"' 	c #F8F8F8",
") 	c #F8F8F7",
"! 	c #FCFCFC",
"~ 	c #FBFBFB",
"{ 	c #FBFBFA",
"] 	c #FAFAF9",
"^ 	c #A4C0DE",
"/ 	c #719DCD",
"( 	c #F1F3F5",
"_ 	c #F6F6F5",
": 	c #FAFAFA",
"< 	c #D4E0EC",
"[ 	c #719ECE",
"} 	c #6B99CA",
"| 	c #D8E1EC",
"1 	c #F5F5F4",
"2 	c #F3F5F6",
"3 	c #97B7D9",
"4 	c #6B98C9",
"5 	c #6693C6",
"6 	c #BECFE1",
"7 	c #F4F4F3",
"8 	c #F9F9F9",
"9 	c #F9F9F8",
"0 	c #AEC6E1",
"a 	c #D7E1EC",
"b 	c #7AA0CC",
"c 	c #608EC2",
"d 	c #A1BAD6",
"e 	c #F3F3F2",
"f 	c #DBE5EE",
"g 	c #A7C1DD",
"h 	c #8FAED2",
"i 	c #5A89BE",
"j 	c #82A3CA",
"k 	c #F2F2F1",
"l 	c #A0B8D5",
"m 	c #F5F6F6",
"n 	c #93B3D7",
"o 	c #EEF1F2",
"p 	c #A7BED8",
"q 	c #5483BA",
"r 	c #628CBD",
"s 	c #F1F1F0",
"t 	c #F7F7F7",
"u 	c #B2C8E1",
"v 	c #6694C7",
"w 	c #608EC3",
"x 	c #4F7EB6",
"y 	c #4978B1",
"z 	c #E7EAEB",
"A 	c #F0F0EF",
"B 	c #9FB7D4",
"C 	c #E0E8EF",
"D 	c #83A7D0",
"E 	c #E9EDF0",
"F 	c #EAEDEF",
"G 	c #E8EBEE",
"H 	c #C8D4E1",
"I 	c #4978B2",
"J 	c #4373AE",
"K 	c #C9D4DF",
"L 	c #EFEFEE",
"M 	c #F5F6F5",
"N 	c #88AAD1",
"O 	c #D4DEE9",
"P 	c #DFE4E9",
"Q 	c #3D6EAA",
"R 	c #A8BBD1",
"S 	c #EEEEED",
"T 	c #F5F5F5",
"U 	c #A6BFDB",
"V 	c #8CADD0",
"W 	c #F2F2F0",
"X 	c #E1E5E9",
"Y 	c #3768A6",
"Z 	c #7796BE",
"` 	c #EEEEEC",
" .	c #A2BCD9",
"..	c #6995C6",
"+.	c #749BC8",
"@.	c #BCCCDE",
"#.	c #CBD5E1",
"$.	c #7394BD",
"%.	c #4370A9",
"&.	c #3F6DA7",
"*.	c #4672AB",
"=.	c #88A3C4",
"-.	c #F3F3F3",
"  . + + + + + + + + + + + + .   ",
". @ # # # # # # # # # # # # $ . ",
"+ % & # & * = - ; > , ' ) @ % + ",
"+ % # # * ! ~ { ] ^ / ( @ _ % + ",
"+ % & * ! ~ : ] < [ } | _ 1 % + ",
"+ % * ! ~ : ] 2 3 4 5 6 1 7 % + ",
"+ % = ~ : 8 9 0 a b c d 7 e % + ",
"+ % ~ : 8 9 f g _ h i j e k % + ",
"+ % l 8 ' m n o 1 p q r k s % + ",
"+ % 9 ' t u v w i q x y z A % + ",
"+ % B t C D E F G H I J K L % + ",
"+ % @ M N O 7 e k P J Q R S % + ",
"+ % T U V 7 e k W X Q Y Z ` % + ",
"+ %  ...+.@.k s #.$.%.&.*.=.% + ",
". 1 % % % % % % % % % % % % -.. ",
"  . + + + + + + + + + + + + .   "};
