/* XPM */
static char * go_xpm[] = {
"16 16 96 2",
"  	c None",
". 	c #C15D0C",
"+ 	c #CA5C03",
"@ 	c #B95D13",
"# 	c #CB5C02",
"$ 	c #E07E18",
"% 	c #E48720",
"& 	c #E3851E",
"* 	c #DE7A15",
"= 	c #C95C04",
"- 	c #DE7B15",
"; 	c #E28921",
"> 	c #E08A23",
", 	c #D17718",
"' 	c #D37617",
") 	c #E2821B",
"! 	c #BA5D13",
"~ 	c #CC5C01",
"{ 	c #E59028",
"] 	c #E49028",
"^ 	c #D77D1C",
"/ 	c #BC5A05",
"( 	c #F3A033",
"_ 	c #CA5C04",
": 	c #6E706B",
"< 	c #C35E0A",
"[ 	c #DE7B16",
"} 	c #CC6F13",
"| 	c #D9801E",
"1 	c #C96A10",
"2 	c #B85400",
"3 	c #EF992E",
"4 	c #C25D0B",
"5 	c #FFFFFF",
"6 	c #E7B287",
"7 	c #CE680A",
"8 	c #BB5300",
"9 	c #BA5400",
"0 	c #D47414",
"a 	c #E5871F",
"b 	c #E2AC81",
"c 	c #F4F4F4",
"d 	c #FDFDFD",
"e 	c #EDEDED",
"f 	c #EBE7E4",
"g 	c #D16D1C",
"h 	c #CF6B1A",
"i 	c #F3F4F3",
"j 	c #FCFBFC",
"k 	c #ECEBEC",
"l 	c #ECECEC",
"m 	c #EAE6E3",
"n 	c #908577",
"o 	c #CC6009",
"p 	c #9B7D62",
"q 	c #F3F3F3",
"r 	c #FAFAFA",
"s 	c #EAEAEB",
"t 	c #EAEAEA",
"u 	c #EAEBEA",
"v 	c #8C8D89",
"w 	c #CECECE",
"x 	c #888A86",
"y 	c #F2F2F2",
"z 	c #F9F9F9",
"A 	c #D89661",
"B 	c #CF620A",
"C 	c #D99661",
"D 	c #E9E8E9",
"E 	c #E9E8E8",
"F 	c #888A85",
"G 	c #F1F1F1",
"H 	c #CE5C00",
"I 	c #E6E7E7",
"J 	c #B8B8B6",
"K 	c #E6E7E6",
"L 	c #E6E6E6",
"M 	c #F7F7F7",
"N 	c #D79560",
"O 	c #E4E5E5",
"P 	c #E5E4E4",
"Q 	c #E5E5E4",
"R 	c #E4E4E5",
"S 	c #E4E5E4",
"T 	c #E4E4E4",
"U 	c #F0F0F0",
"V 	c #FEFEFE",
"W 	c #EBEBEB",
"X 	c #E3E3E3",
"Y 	c #CDCDCD",
"Z 	c #C9C9C9",
"` 	c #CACACA",
" .	c #DDDDDD",
"..	c #DCDCDC",
"+.	c #D5D5D5",
"@.	c #CFCFCF",
"              . + + @           ",
"            # $ % & * =         ",
"            - ; > , ' ) !       ",
"          ~ & { ] ^ / ( _       ",
": : : : : < [ } | 1 2 3 4 : : : ",
": 5 5 5 5 6 $ 7 8 9 0 a b 5 c : ",
": d e e e f g a 3 ( a h f e i : ",
": j k l l l m n o o p m l l q : ",
": r s t u t t v e w x u t t y : ",
": z A B C D E F e w F E E E G : ",
": z B H B I I J F F J K L L G : ",
": M N B N O P Q Q R Q S T T U : ",
": V 5 5 5 5 5 5 5 c c W W X U : ",
": Y Z Z Z Z Z Z Z Z Z Z Z Z ` : ",
":  .......+.+.@.@.@.@.@.@.@.` : ",
": : : : : : : : : : : : : : : : "};
