/* XPM */
static char * isidoor_xpm[] = {
"32 32 9 1",
" 	c None",
".	c #000000",
"+	c #FFC7B1",
"@	c #FFFFFF",
"#	c #FFAB8E",
"$	c #FF2557",
"%	c #FF6B8F",
"&	c #DC0000",
"*	c #FFB1C7",
"             .......            ",
"           ..+++++++..          ",
"          .+++++++++++.         ",
"         .+++++++++++++.        ",
"         .++++++.++.++.+.       ",
"        .++++++++..+..++......  ",
"        .++++...........+.@@..  ",
"  ..............+++++.....@@..  ",
"  ..+++++++..++++++++..+++.@..  ",
"  .#+..++++..#++++++..+++++..   ",
"   .##+++++..##.++....++++++.   ",
"    .....+++.........+++++++.   ",
"        .+++++..+++++++++++++.  ",
"        .++++.@.+++++++++++++.  ",
"       .#++++.@.++++++++++++++. ",
"       .#++++.@.++++++++++++++. ",
"       .#+++....#++++++++++++++.",
"       .#+++....#++++++++++++++.",
"       .#+++....#++++++++++++++.",
"       .#+++.....#+++++++++++++.",
"      ...#++.....#+++++++++++++.",
"      ...#++.&...#+++++++++++++.",
"     ....#++.&&.&.#++++++++++++.",
"    ......#+.&*&&.#+++++++++++. ",
"   .%......+..&&...#++++++++++. ",
"   .%......##...+++.#+++++++#.  ",
"  .%%.....@..###++++.##+++##..  ",
"  .%%......@@...#####..###....  ",
" .%%$$......@@@@............... ",
" .%$$$.......@@@@@@@@@@@@@..... ",
".%%$$$.......@@@@@@..@..@@......",
".%$$$$$.......@@@@@.....@@@....."};
