/* XPM */
static char * pause_xpm[] = {
"16 16 6 1",
" 	c None",
".	c #ACA899",
"+	c #FFFFFF",
"@	c #000080",
"#	c #0049C0",
"$	c #000000",
"                ",
"...........     ",
".+++++++++.     ",
".+++++++++.     ",
".+$$$+++++.     ",
".+++++++++.     ",
".++$$$$$$+.     ",
".+++++++++.@# @#",
".++$$$$$$+.#@ #@",
".+++++++++.@# @#",
".+++$$$$++.#@ #@",
".+++++++++.@# @#",
".++$$$$$$+.#@ #@",
".+++++++++.@# @#",
".+++++++++.     ",
"...........     "};
