/* XPM */
static char * play_xpm[] = {
"16 16 58 1",
" 	c None",
".	c #464745",
"+	c #4C4D4A",
"@	c #4D4E4B",
"#	c #4A4B47",
"$	c #4B4C49",
"%	c #FBFBFB",
"&	c #B0B2AF",
"*	c #474745",
"=	c #4E4F4C",
"-	c #F2F3F0",
";	c #E8E8E6",
">	c #A3A4A2",
",	c #50514E",
"'	c #464845",
")	c #545551",
"!	c #F6F6F5",
"~	c #FAFBFA",
"{	c #F9F9F9",
"]	c #DEDEDD",
"^	c #9D9D9A",
"/	c #555754",
"(	c #595B57",
"_	c #ECEEEA",
":	c #EEEFEC",
"<	c #EDEEEB",
"[	c #EBECE9",
"}	c #E6E7E5",
"|	c #959694",
"1	c #6C6E69",
"2	c #5E5F5C",
"3	c #E1E4DF",
"4	c #E1E3DE",
"5	c #E0E3DE",
"6	c #E5E7E3",
"7	c #F5F5F4",
"8	c #EBEBEA",
"9	c #949591",
"0	c #7F807C",
"a	c #646561",
"b	c #D7DAD3",
"c	c #DCDFDA",
"d	c #F6F7F6",
"e	c #F3F3F2",
"f	c #959592",
"g	c #6F716C",
"h	c #696B67",
"i	c #FBFBFA",
"j	c #FAFAF9",
"k	c #A6A7A4",
"l	c #797B77",
"m	c #F9FAF9",
"n	c #B3B5B1",
"o	c #858781",
"p	c #92958F",
"q	c #787A73",
"r	c #898A85",
"s	c #7E807A",
"                ",
"                ",
"   .            ",
"   +@#          ",
"   $%&$*        ",
"   =%-;>,'      ",
"   )%!~{]^/     ",
"   (%_::<[}|1   ",
"   2%34567890   ",
"   a%bcdefg     ",
"   hi!jkl       ",
"   gmnop        ",
"   qrs          ",
"   g            ",
"                ",
"                "};
