/* XPM */
static char * redo_xpm[] = {
"16 16 58 1",
" 	c None",
".	c #788600",
"+	c #7E8E02",
"@	c #C1CD1C",
"#	c #808A00",
"$	c #858C00",
"%	c #C1CC1A",
"&	c #7D8800",
"*	c #8B9000",
"=	c #B1B508",
"-	c #D3D819",
";	c #D9DE1E",
">	c #D8DD1B",
",	c #D4D909",
"'	c #AFBA08",
")	c #7E8900",
"!	c #ADB103",
"~	c #D8DD17",
"{	c #C8D009",
"]	c #B5BD08",
"^	c #B1BC08",
"/	c #7F8900",
"(	c #A7AF05",
"_	c #D3D809",
":	c #BCC108",
"<	c #ACB908",
"[	c #CCD41E",
"}	c #898E00",
"|	c #949602",
"1	c #D9DF27",
"2	c #D7DC0F",
"3	c #ADBB08",
"4	c #838B00",
"5	c #B8C238",
"6	c #DAE030",
"7	c #CBD417",
"8	c #B9C407",
"9	c #D9DE23",
"0	c #C9D042",
"a	c #CDD624",
"b	c #93A10B",
"c	c #818D00",
"d	c #DDE251",
"e	c #99A605",
"f	c #838C00",
"g	c #CCD53A",
"h	c #D5DB3F",
"i	c #8D9502",
"j	c #939803",
"k	c #B9C01F",
"l	c #919D05",
"m	c #959402",
"n	c #8F9500",
"o	c #CED42A",
"p	c #9A9902",
"q	c #8E9403",
"r	c #A9A607",
"s	c #A39E02",
"         ..     ",
"         +@+    ",
"     #$...%%.   ",
"    &*=-;>,'%.  ",
"   )!~{{{{{]^%+ ",
"  /(_,{{{{:'<^[.",
" }|12{{{]]]3<[. ",
" 45678{{{{9<[.  ",
" .0abc....[[.   ",
" .def    .[+    ",
" .gc     ..     ",
" .hi            ",
" jkl            ",
" mnop           ",
"   qrs          ",
"    *$#         "};
