/* XPM */
static char * script_xpm[] = {
"16 16 16 1",
" 	c None",
".	c #CC9999",
"+	c #996666",
"@	c #996633",
"#	c #CC6633",
"$	c #FFFF99",
"%	c #ADA990",
"&	c #CC9933",
"*	c #CCCC33",
"=	c #CCCC99",
"-	c #CCCCCC",
";	c #993333",
">	c #FFCC33",
",	c #CC9966",
"'	c #999966",
")	c #FFCC99",
"                ",
" ..+@##$$%%     ",
".@@@&&&&&*&@=-  ",
";@@@@&@@&&&&>,- ",
";@@@@@&&@@@&&&@ ",
"'@@@&&&&&&@@@&@ ",
"-@&&&&&&&&&;%.. ",
" ,&*&&&&&&&@    ",
" )>*>&**&&>&+   ",
" @>&&&&&*&&&@+  ",
" @>*&&@@&&&&&@% ",
" @&&@@&&*>>&&*&=",
" .@@@@&&&&&&&&&@",
"  +;;@=====,@@@.",
"                ",
"                "};
