/* XPM */
static char * softupdate_xpm[] = {
"16 16 165 2",
"  	c None",
". 	c #364878",
"+ 	c #5978A2",
"@ 	c #5877A2",
"# 	c #6B7B9F",
"$ 	c #DCE4ED",
"% 	c #E6EBF4",
"& 	c #D5DFEB",
"* 	c #B1C2D6",
"= 	c #7E97B9",
"- 	c #5979A3",
"; 	c #546E98",
"> 	c #5A6B93",
", 	c #B4BCCD",
"' 	c #CFD9E2",
") 	c #BABFC4",
"! 	c #BECBDA",
"~ 	c #BED4EB",
"{ 	c #BECAD6",
"] 	c #D9E1E9",
"^ 	c #A3B6CE",
"/ 	c #5A79A3",
"( 	c #597199",
"_ 	c #C4CAD6",
": 	c #CED1D3",
"< 	c #E2EFFE",
"[ 	c #DEEDFB",
"} 	c #D4E5F6",
"| 	c #BCC8D4",
"1 	c #C0C6CE",
"2 	c #DBDEE0",
"3 	c #E6EBF0",
"4 	c #A0B4CD",
"5 	c #5A7AA4",
"6 	c #4E648F",
"7 	c #AFB8CB",
"8 	c #E3E4E5",
"9 	c #CAD5DF",
"0 	c #E2F1FF",
"a 	c #E3F1FF",
"b 	c #DAEAFA",
"c 	c #C6CFD8",
"d 	c #D7D9DB",
"e 	c #F4F4F5",
"f 	c #FBFBFB",
"g 	c #D5DFE9",
"h 	c #7994B6",
"i 	c #516790",
"j 	c #5B6D94",
"k 	c #D9DCDF",
"l 	c #CCDDEF",
"m 	c #E0EFFF",
"n 	c #E1F0FF",
"o 	c #DAEBFC",
"p 	c #C7CDD2",
"q 	c #BEC7D0",
"r 	c #A4B5C9",
"s 	c #B5BEC8",
"t 	c #E4E6E8",
"u 	c #A3B8D0",
"v 	c #405583",
"w 	c #8593B1",
"x 	c #AABED3",
"y 	c #CCE3FA",
"z 	c #DEEEFF",
"A 	c #DFEFFF",
"B 	c #CEDBEA",
"C 	c #FDFDFD",
"D 	c #FEFEFE",
"E 	c #E2E4E6",
"F 	c #DCDDDF",
"G 	c #BCCDDF",
"H 	c #686284",
"I 	c #ADB9CE",
"J 	c #ACCAE9",
"K 	c #BCD7F2",
"L 	c #C9E1F9",
"M 	c #D5E8FC",
"N 	c #D2E5F9",
"O 	c #C8CFD5",
"P 	c #F9F9F9",
"Q 	c #AEB5BC",
"R 	c #C3D2E3",
"S 	c #705472",
"T 	c #506A96",
"U 	c #9EADC5",
"V 	c #B7C2CD",
"W 	c #C8CED4",
"X 	c #B3CCE8",
"Y 	c #B5D1EE",
"Z 	c #B1CEEC",
"` 	c #A9BCD1",
" .	c #F8F9F9",
"..	c #F1F2F3",
"+.	c #EFEFEF",
"@.	c #CED0D1",
"#.	c #B8C9DD",
"$.	c #6F5674",
"%.	c #5C77A1",
"&.	c #95A7C2",
"*.	c #DCE1E5",
"=.	c #DFE1E3",
"-.	c #A2BDDA",
";.	c #9CBDE0",
">.	c #93B6DC",
",.	c #84A6CA",
"'.	c #8BA7C7",
").	c #F5F5F5",
"!.	c #E2E2E2",
"~.	c #9DA6AE",
"{.	c #9DB3CD",
"].	c #843345",
"^.	c #A40000",
"/.	c #607AA3",
"(.	c #7A95B7",
"_.	c #D6DFE9",
":.	c #EDEEEF",
"<.	c #83A7CE",
"[.	c #80A7D1",
"}.	c #759FCB",
"|.	c #6C96C5",
"1.	c #E0E0E0",
"2.	c #D3D3D3",
"3.	c #A5B7C9",
"4.	c #768BAD",
"5.	c #991116",
"6.	c #617FA8",
"7.	c #9CB2CB",
"8.	c #DCE3E9",
"9.	c #F6F6F6",
"0.	c #B8BFC6",
"a.	c #719BC9",
"b.	c #6B96C6",
"c.	c #628FC1",
"d.	c #5988BC",
"e.	c #D1D1D1",
"f.	c #BCC4CC",
"g.	c #94ACC8",
"h.	c #774861",
"i.	c #5D7DA6",
"j.	c #9AB0CB",
"k.	c #CCD7E2",
"l.	c #6D90B7",
"m.	c #5C8ABD",
"n.	c #5686BA",
"o.	c #4F80B6",
"p.	c #5685B7",
"q.	c #B3C1D0",
"r.	c #93ABC7",
"s.	c #656588",
"t.	c #9E080B",
"u.	c #6983A6",
"v.	c #7792B6",
"w.	c #9FB4CE",
"x.	c #B7C8DC",
"y.	c #BECFE1",
"z.	c #B4C7DC",
"A.	c #9BB2CC",
"B.	c #7591B4",
"C.	c #6E5471",
"D.	c #576F95",
"E.	c #5A769F",
"F.	c #5A79A4",
"G.	c #58749D",
"H.	c #931821",
"  . . . . . . . + @             ",
"    . . . # $ % & * = -         ",
"    ; > , ' ) ! ~ { ] ^ /       ",
"  ( > _ : < [ } | 1 2 3 4 5     ",
"6 . 7 8 9 0 a b c d e f g h     ",
"i j k l m n n o p q r s t u 5   ",
"v w x y z A A B C D C E F G H   ",
". I J K L M N O D D D P Q R S   ",
"T U V W X Y Z `  ...D +.@.#.$.  ",
"%.&.*.D =.-.;.>.,.'.).!.~.{.].^.",
"/.(._.D D :.<.[.}.|.1.2.3.4.5.^.",
"  6.7.8.9.0.a.b.c.d.e.f.g.h.^.  ",
"    i.j.k.l.m.n.o.p.q.r.s.t.    ",
"      u.v.w.x.y.z.A.B.C.t.      ",
"        D.E./ F.+ G.H.^.^.^.    ",
"                ^.^.^.^.^.^.^.  "};
