/* XPM */
static char * split_li_xpm[] = {
"16 16 4 1",
" 	c None",
".	c #00FF00",
"+	c #008000",
"@	c #040404",
"                ",
"                ",
"          .     ",
"          .+    ",
"        .....   ",
"         +.+++  ",
"          .+    ",
" @@   @@   +    ",
" @@@ @@@        ",
"  @@@@@         ",
"   @@@          ",
"  @@@@@         ",
" @@@ @@@        ",
" @@   @@        ",
"                ",
"                "};
