/* XPM */
static char * stop_xpm[] = {
"16 16 55 1",
" 	c None",
".	c #545652",
"+	c #555753",
"@	c #595B57",
"#	c #FFFFFF",
"$	c #5C5E5A",
"%	c #DCDFD8",
"&	c #E3E5E0",
"*	c #EAEBE8",
"=	c #F0F2EF",
"-	c #F7F8F7",
";	c #FDFDFD",
">	c #5D5F5B",
",	c #5F615D",
"'	c #DFE2DC",
")	c #E6E8E4",
"!	c #EDEEEB",
"~	c #F3F4F2",
"{	c #F8F8F7",
"]	c #F7F8F6",
"^	c #60625E",
"/	c #626460",
"(	c #E1E4DF",
"_	c #E6E9E4",
":	c #EBEDEA",
"<	c #EFF1EE",
"[	c #F0F1EF",
"}	c #EEEFEC",
"|	c #636661",
"1	c #656763",
"2	c #E0E3DD",
"3	c #E3E6E1",
"4	c #E7E9E4",
"5	c #E8EAE6",
"6	c #E7E9E5",
"7	c #E4E7E2",
"8	c #676964",
"9	c #696B66",
"0	c #DDE0DA",
"a	c #DEE1DB",
"b	c #E0E2DD",
"c	c #DBDED8",
"d	c #6A6C68",
"e	c #6C6E69",
"f	c #D8DBD5",
"g	c #D7DBD4",
"h	c #D8DBD4",
"i	c #D7DBD3",
"j	c #D5D9D1",
"k	c #D3D7CF",
"l	c #6D706B",
"m	c #6F716C",
"n	c #70736E",
"o	c #72746F",
"p	c #737570",
"                ",
"                ",
"                ",
"   .+++++++++   ",
"   @########@   ",
"   $#%&*=-;#>   ",
"   ,#')!~{]#^   ",
"   /#(_:<[}#|   ",
"   1#234567#8   ",
"   9#0abbac#d   ",
"   e#fghijk#l   ",
"   m########n   ",
"   oppppppppp   ",
"                ",
"                ",
"                "};
