/* XPM */
static char * talk_xpm[] = {
"16 16 22 1",
" 	c None",
".	c #CC9999",
"+	c #ADA990",
"@	c #CCCC99",
"#	c #EFD6C6",
"$	c #C0C0C0",
"%	c #DDDDDD",
"&	c #F1F1F1",
"*	c #D7D7D7",
"=	c #EAEAEA",
"-	c #CCCCCC",
";	c #868686",
">	c #666666",
",	c #4D4D4D",
"'	c #A0A0A4",
")	c #996666",
"!	c #993333",
"~	c #663333",
"{	c #993366",
"]	c #E3E3E3",
"^	c #F8F8F8",
"/	c #E7E7D6",
"                ",
"                ",
"                ",
"                ",
"                ",
"   .++++@#      ",
"   $%$&$*$+$&   ",
"   =-;>,;;$'+.  ",
"      -)!!!~;~  ",
"     *{!!!>;.%  ",
"     $...]+.^   ",
"     .+++./^    ",
"                ",
"                ",
"                ",
"                "};
