/* XPM */
static char * undo_xpm[] = {
"16 16 61 1",
" 	c None",
".	c #C4A000",
"+	c #FBE52B",
"@	c #FBE425",
"#	c #BEA113",
"$	c #BB9F15",
"%	c #BBA11B",
"&	c #F6E131",
"*	c #FAE320",
"=	c #FAE31C",
"-	c #F9E012",
";	c #F3D911",
">	c #F1D705",
",	c #BCA114",
"'	c #C1A314",
")	c #FBE42D",
"!	c #F6E02F",
"~	c #F7E232",
"{	c #F1DB29",
"]	c #F5E02F",
"^	c #E3CD16",
"/	c #E7CF04",
"(	c #F0D705",
"_	c #D9BF13",
":	c #C1A313",
"<	c #F8E232",
"[	c #E8D21D",
"}	c #D7BD12",
"|	c #BDA116",
"1	c #F4DF2C",
"2	c #D6C004",
"3	c #DFC80B",
"4	c #E8D006",
"5	c #C5AB1B",
"6	c #BCA015",
"7	c #DAC304",
"8	c #F7DD05",
"9	c #DFC80A",
"0	c #D8C207",
"a	c #D3BA14",
"b	c #BFA31B",
"c	c #C4A901",
"d	c #DCC611",
"e	c #DFC90F",
"f	c #E6CE05",
"g	c #C0A41A",
"h	c #EED30F",
"i	c #DAC50F",
"j	c #C1A319",
"k	c #C8AC02",
"l	c #DDC818",
"m	c #C2A211",
"n	c #CBAA0E",
"o	c #D8C20C",
"p	c #C0A623",
"q	c #CEB016",
"r	c #CAB216",
"s	c #DBC51E",
"t	c #C2A611",
"u	c #C3A618",
"v	c #C4A71A",
"     ..         ",
"    .+.         ",
"   .@@..#$%     ",
"  .@&*=-;>,'    ",
" .)!~{]{^/(_:   ",
".)!<~~]{[[[/}|  ",
" .)<1222[[[3456 ",
"  .@7@8888890ab ",
"   .@@....cdefg ",
"    .@.    .hij ",
"     ..     klm ",
"            nop ",
"            qrp ",
"           .st  ",
"          .uv   ",
"          .     "};
