/* XPM */
static char * walkpoint_xpm[] = {
"16 16 3 1",
" 	c None",
".	c #4B4BD9",
"+	c #EF1515",
"                ",
"          ...   ",
"         .   .  ",
"         .   .  ",
"          ...   ",
"    +      .    ",
"   +       .    ",
"  ++++++   .    ",
"   +       .    ",
"    +      .    ",
"           .    ",
"          . .   ",
"         .   .  ",
"                ",
"                ",
"                "};
